# xmcd
#
# Track frame offsets:
#	150
#	20787
#	39459
#	59371
#	78785
#	114601
#	138960
#	164336
#	184737
#	203469
#	219878
#	241318
#	256769
#	273062
#	291158
#	310210
#	329879
#
# Disc length: 4659
#
# Revision: 1
# Processed by: cddbd v1.5.1PL0 Copyright (c) Steve Scherf et al.
# Submitted via: dBpowerAMP V4.0
# Normalized: r0:TRMNUM
#
DISCID=ee123111
DTITLE=Queen - Greatest Hits Volume 3
DYEAR=1992
DGENRE=Retro
TTITLE0=The Show Must Go On (With Elton John)
TTITLE1=Under Pressure (Rah Mix) (With David Bowie)
TTITLE2=Barcelona (With Montserrat Caballe)
TTITLE3=Too Much Love Will Kill You
TTITLE4=Somebody To Love (With George Michael)
TTITLE5=You Don't Fool Me
TTITLE6=Heaven For Everyone
TTITLE7=Las Palabras De Amor (The Words Of Love)
TTITLE8=Driven By You
TTITLE9=Living On My Own
TTITLE10=Let Me Live
TTITLE11=The Great Pretender
TTITLE12=Princes Of The Universe
TTITLE13=Another One Bites The Dust (With Wyclef Jean)
TTITLE14=No-One But You (Only The Good Die Young)
TTITLE15=These Are The Days Of Our Lives
TTITLE16=Thank God It's Christmas (Bonus Track)
EXTD=
EXTT0=
EXTT1=
EXTT2=
EXTT3=
EXTT4=
EXTT5=
EXTT6=
EXTT7=
EXTT8=
EXTT9=
EXTT10=
EXTT11=
EXTT12=
EXTT13=
EXTT14=
EXTT15=
EXTT16=
PLAYORDER=
